# xmcd CD database file
# Copyright (C) 1993-1996 Ti Kan
#
# Track frame offsets:
# 183
# 10518
# 21310
# 32403
# 41883
# 52785
# 68868
# 80275
# 92970
# 104190
# 117368
# 128745
#
# Disc length: 1910 seconds
#
# Revision: 0
# Processed by: cddbd v1.4b41PL1 Copyright (c) Steve Scherf et al.
# Submitted via: inCDius 1.1b5
#
DISCID=9707740c
DTITLE=Connie Smith - The Best Of Connie Smith
DYEAR=1900
DGENRE=
TTITLE0=Once A Day
TTITLE1=Ain't Had No Lovin'
TTITLE2=Then And Only Then
TTITLE3=Cincinnati, Ohio
TTITLE4=Just For What I Am
TTITLE5=I'd Rather Believe In You
TTITLE6=Just One Time
TTITLE7=The Hurtin's All Over
TTITLE8=Nobody But A Fool (Would Love You)
TTITLE9=I Never Once Stopped Loving You
TTITLE10=If I Talk To Him
TTITLE11=Jesus Is Your Ticket To Heaven
EXTD=
EXTT0=
EXTT1=
EXTT2=
EXTT3=
EXTT4=
EXTT5=
EXTT6=
EXTT7=
EXTT8=
EXTT9=
EXTT10=
EXTT11=
PLAYORDER=
